<?xml version="1.0" encoding="UTF-8"?>
<!-- Generated by Pixelmator Pro 3.7 -->
<svg width="2000" height="2000" viewBox="0 0 2000 2000" xmlns="http://www.w3.org/2000/svg">
    <g id="Logo-Placeholder-Replace-With-Your-Logo-">
        <linearGradient id="linearGradient1" x1="992.95723" y1="1400" x2="992.95723" y2="1211.524475" gradientUnits="userSpaceOnUse">
            <stop offset="0" stop-color="#4b00ff" stop-opacity="1"/>
            <stop offset="1" stop-color="#6e00ff" stop-opacity="1"/>
        </linearGradient>
        <path id="DIJITIZECOM" fill="url(#linearGradient1)" fill-rule="evenodd" stroke="none" d="M 1644.368286 1318.810547 L 1644.368286 1342.007568 L 1800.640991 1342.007568 L 1800.640991 1397.100342 L 1592.962769 1397.100342 L 1592.962769 1211.524414 L 1800.229858 1211.524414 L 1800.229858 1266.61731 L 1644.368286 1266.61731 L 1644.368286 1289.814331 L 1771.853882 1289.814331 L 1771.853882 1318.810547 Z M 1317.429077 1211.524414 L 1535.388428 1211.524414 L 1535.388428 1266.61731 L 1385.695557 1353.895996 L 1384.050537 1342.007568 L 1535.388428 1342.007568 L 1535.388428 1397.100342 L 1317.429077 1397.100342 L 1317.429077 1342.007568 L 1467.73877 1254.72876 L 1469.383789 1266.61731 L 1317.429077 1266.61731 Z M 1205.364868 1211.524414 L 1256.770508 1211.524414 L 1256.770508 1397.100342 L 1205.364868 1397.100342 Z M 939.084229 1211.524414 L 1152.931274 1211.524414 L 1152.931274 1266.61731 L 939.084229 1266.61731 Z M 1020.304993 1262.8479 L 1071.710571 1262.8479 L 1071.710571 1397.100342 L 1020.304993 1397.100342 Z M 835.245117 1211.524414 L 886.650635 1211.524414 L 886.650635 1397.100342 L 835.245117 1397.100342 Z M 723.180969 1301.702881 L 723.180969 1211.524414 L 774.586487 1211.524414 L 774.586487 1310.401611 C 774.586487 1321.420288 772.838806 1332.197021 769.343201 1342.732422 C 765.847595 1353.267822 760.36438 1362.884766 752.893433 1371.58374 C 745.422424 1380.282715 735.826843 1387.193359 724.106262 1392.315918 C 712.385803 1397.438721 698.369324 1400 682.05658 1400 C 670.678772 1400 659.472473 1398.501831 648.437317 1395.505615 C 637.402222 1392.509277 627.429626 1387.628296 618.519287 1380.862549 C 609.608948 1374.09668 602.480835 1365.05957 597.134583 1353.750977 C 591.788452 1342.442383 589.046814 1328.476074 588.909729 1311.851563 L 638.259033 1311.851563 C 640.178162 1323.83667 644.59906 1332.342041 651.521667 1337.368164 C 658.444336 1342.394043 668.622498 1344.907227 682.05658 1344.907227 C 693.434387 1344.907227 702.070435 1343.070801 707.964966 1339.397827 C 713.859497 1335.724976 717.86908 1330.602295 719.993835 1324.029785 C 722.118652 1317.457275 723.180969 1310.015015 723.180969 1301.702881 Z M 484.864929 1211.524414 L 536.270447 1211.524414 L 536.270447 1397.100342 L 484.864929 1397.100342 Z M 333.321411 1211.524414 C 351.827484 1211.524414 367.111908 1214.037598 379.17514 1219.063477 C 391.238373 1224.0896 400.696869 1230.951904 407.550964 1239.650879 C 414.40509 1248.349854 419.237152 1258.256714 422.047333 1269.371948 C 424.857544 1280.487305 426.262634 1292.134033 426.262634 1304.3125 C 426.262634 1316.490967 424.686188 1328.137573 421.533295 1339.25293 C 418.380432 1350.368164 413.205627 1360.275024 406.00882 1368.973999 C 398.812012 1377.672974 389.284943 1384.535278 377.427338 1389.561279 C 365.569733 1394.587402 350.86792 1397.100342 333.321411 1397.100342 L 185.273438 1397.100342 L 185.273438 1211.524414 Z M 236.679001 1339.10791 L 331.265167 1339.10791 C 338.941772 1339.10791 345.453064 1338.383057 350.799286 1336.933105 C 356.145477 1335.483398 360.42923 1333.308594 363.650665 1330.408936 C 366.872101 1327.509277 369.202454 1323.884766 370.641815 1319.5354 C 372.081177 1315.186035 372.800842 1310.111572 372.800842 1304.3125 C 372.800842 1298.513184 372.081177 1293.438843 370.641815 1289.089478 C 369.202454 1284.73999 366.872101 1281.115479 363.650665 1278.21582 C 360.42923 1275.316162 356.145477 1273.141479 350.799286 1271.69165 C 345.453064 1270.241821 338.941772 1269.516968 331.265167 1269.516968 L 236.679001 1269.516968 Z"/>
    </g>
    <linearGradient id="linearGradient2" x1="1507.886841" y1="1447.427522" x2="1507.886841" y2="1564" gradientUnits="userSpaceOnUse">
        <stop offset="0" stop-color="#a7edff" stop-opacity="1"/>
        <stop offset="0.305961" stop-color="#00ffdb" stop-opacity="1"/>
    </linearGradient>
    <path id="Shape" fill="url(#linearGradient2)" fill-rule="evenodd" stroke="none" d="M 1245.180664 1534.685425 L 1245.180664 1560.571411 L 1214.302734 1560.571411 L 1214.302734 1534.685425 Z M 1414.766602 1514.799561 C 1414.361328 1525.65686 1411.565308 1534.742554 1406.378418 1542.057007 C 1401.191528 1549.371338 1393.553223 1554.857056 1383.463013 1558.514282 C 1373.372925 1562.171387 1360.628784 1564 1345.230225 1564 C 1333.47876 1564 1322.942993 1563.114258 1313.622803 1561.342773 C 1304.302734 1559.571289 1296.360352 1556.542847 1289.795776 1552.25708 C 1283.231079 1547.971313 1278.206421 1542.114136 1274.721436 1534.685425 C 1271.23645 1527.256836 1269.494019 1517.885376 1269.494019 1506.570923 C 1269.494019 1495.256592 1271.23645 1485.799316 1274.721436 1478.199219 C 1278.206421 1470.599121 1283.231079 1464.541992 1289.795776 1460.027588 C 1296.360352 1455.513306 1304.302734 1452.284668 1313.622803 1450.341797 C 1322.942993 1448.398926 1333.47876 1447.42749 1345.230225 1447.42749 C 1360.628784 1447.42749 1373.393188 1449.398926 1383.523804 1453.341919 C 1393.654419 1457.28479 1401.31311 1463.084717 1406.5 1470.742065 C 1411.68689 1478.399292 1414.48291 1487.713501 1414.888062 1498.685059 L 1383.280762 1498.685059 C 1382.308105 1495.027954 1380.525146 1491.799316 1377.931763 1488.999268 C 1375.338379 1486.199219 1371.448242 1483.999268 1366.261353 1482.399292 C 1361.074463 1480.799316 1354.064209 1479.999268 1345.230225 1479.999268 C 1334.856445 1479.999268 1326.427979 1480.88501 1319.944336 1482.656372 C 1313.460693 1484.427856 1308.719727 1487.25647 1305.720947 1491.142212 C 1302.72229 1495.028076 1301.223022 1500.170898 1301.223022 1506.570923 C 1301.223022 1512.399658 1302.72229 1517.142334 1305.720947 1520.799561 C 1308.719727 1524.456787 1313.460693 1527.142578 1319.944336 1528.856812 C 1326.427979 1530.571045 1334.856445 1531.428223 1345.230225 1531.428223 C 1354.064209 1531.428223 1361.054199 1530.685425 1366.200562 1529.199707 C 1371.346924 1527.713867 1375.216797 1525.685303 1377.810181 1523.113892 C 1380.403687 1520.54248 1382.186646 1517.770996 1383.15918 1514.799561 Z M 1520.043457 1564 C 1502.375732 1564 1488.152466 1561.799927 1477.373535 1557.400024 C 1466.594482 1552.999878 1458.75354 1546.485596 1453.850342 1537.856934 C 1448.947144 1529.228271 1446.495483 1518.514038 1446.495483 1505.713745 C 1446.495483 1492.913574 1448.947144 1482.199341 1453.850342 1473.570679 C 1458.75354 1464.941895 1466.594482 1458.427734 1477.373535 1454.027588 C 1488.152466 1449.627563 1502.375732 1447.42749 1520.043457 1447.42749 C 1537.711304 1447.42749 1551.934448 1449.627563 1562.713501 1454.027588 C 1573.492432 1458.427734 1581.333496 1464.941895 1586.236694 1473.570679 C 1591.139893 1482.199341 1593.591553 1492.913574 1593.591553 1505.713745 C 1593.591553 1518.514038 1591.139893 1529.228271 1586.236694 1537.856934 C 1581.333496 1546.485596 1573.492432 1552.999878 1562.713501 1557.400024 C 1551.934448 1561.799927 1537.711304 1564 1520.043457 1564 Z M 1520.043457 1531.428223 C 1528.391113 1531.428223 1535.604004 1530.713989 1541.682373 1529.2854 C 1547.760742 1527.856812 1552.461304 1525.2854 1555.78418 1521.571045 C 1559.107056 1517.856689 1560.768433 1512.571045 1560.768433 1505.713745 C 1560.768433 1498.856567 1559.107056 1493.570801 1555.78418 1489.856445 C 1552.461304 1486.14209 1547.760742 1483.570801 1541.682373 1482.14209 C 1535.604004 1480.713623 1528.391113 1479.999268 1520.043457 1479.999268 C 1511.695923 1479.999268 1504.381714 1480.713623 1498.100708 1482.14209 C 1491.819702 1483.570801 1486.916504 1486.14209 1483.391113 1489.856445 C 1479.865601 1493.570801 1478.102905 1498.856567 1478.102905 1505.713745 C 1478.102905 1512.571045 1479.865601 1517.856689 1483.391113 1521.571045 C 1486.916504 1525.2854 1491.819702 1527.856812 1498.100708 1529.2854 C 1504.381714 1530.713989 1511.695923 1531.428223 1520.043457 1531.428223 Z M 1722.938721 1547.542725 L 1704.703613 1547.542725 L 1771.079224 1450.856201 L 1801.470947 1450.856201 L 1801.470947 1560.571411 L 1771.079224 1560.571411 L 1771.079224 1485.827881 L 1780.196777 1491.142212 L 1732.177734 1560.571411 L 1695.707764 1560.571411 L 1647.567261 1491.313721 L 1656.806274 1485.999268 L 1656.806274 1560.571411 L 1626.414551 1560.571411 L 1626.414551 1450.856201 L 1656.806274 1450.856201 Z"/>
    <path id="Color-Fill" fill="#1f271b" stroke="none" visibility="hidden" d="M 0 0 L 2000 0 L 2000 2000 L 0 2000 Z"/>
    <g id="Group-copy">
        <g id="Group">
            <g id="g1">
                <clipPath id="clipPath1">
                    <path d="M 723.668333 489.530507 C 765.805201 751.150608 175.771239 905.844356 175.771239 905.844356 C 175.771239 905.844356 783.141566 849.470018 833.013817 1109.659566 L 1088.469909 744.910955 Z M 723.668333 489.530507"/>
                </clipPath>
                <g id="g2" clip-path="url(#clipPath1)">
                    <g id="g3">
                        <clipPath id="clipPath2">
                            <path d="M 1148.618685 1053.943316 L 1032.309988 426.788242 L 115.622651 596.811962 L 231.996031 1223.955631 Z M 1148.618685 1053.943316"/>
                        </clipPath>
                        <g id="g4" clip-path="url(#clipPath2)">
                            <linearGradient id="linearGradient3" x1="309.111133" y1="825.371953" x2="955.194697" y2="825.371953" gradientUnits="userSpaceOnUse" gradientTransform="matrix(0.173648 0.984808 -0.984808 0.173648 1335.213412 59.498526)">
                                <stop offset="0.224997" stop-color="#a7edff" stop-opacity="1"/>
                                <stop offset="1" stop-color="#00ffdb" stop-opacity="1"/>
                            </linearGradient>
                            <path id="Path" fill="url(#linearGradient3)" stroke="none" d="M 1148.618652 1053.943359 L 1032.309937 426.788208 L 115.687141 596.800537 L 231.996033 1223.955566 Z M 1148.618652 1053.943359"/>
                        </g>
                    </g>
                </g>
            </g>
        </g>
        <g id="g5">
            <linearGradient id="linearGradient4" x1="620.313197" y1="1034.850997" x2="683.069105" y2="1034.850997" gradientUnits="userSpaceOnUse" gradientTransform="matrix(0.173648 0.984808 -0.984808 0.173648 1557.655455 213.360509)">
                <stop offset="0.224997" stop-color="#a7edff" stop-opacity="1"/>
                <stop offset="1" stop-color="#00ffdb" stop-opacity="1"/>
            </linearGradient>
            <path id="path1" fill="url(#linearGradient4)" stroke="none" d="M 681.671143 1030.847778 L 663.386047 1042.8125 L 662.843201 1064.746582 L 645.843933 1050.957764 L 624.942932 1057.182373 L 632.71814 1036.699463 L 620.304993 1018.600342 L 642.101624 1019.72876 L 655.367676 1002.340698 L 661.080017 1023.519226 Z M 681.671143 1030.847778"/>
            <linearGradient id="linearGradient5" x1="464.891624" y1="681.362219" x2="540.744104" y2="681.362219" gradientUnits="userSpaceOnUse" gradientTransform="matrix(0.173648 0.984808 -0.984808 0.173648 1086.515254 67.865981)">
                <stop offset="0.224997" stop-color="#a7edff" stop-opacity="1"/>
                <stop offset="1" stop-color="#00ffdb" stop-opacity="1"/>
            </linearGradient>
            <path id="path2" fill="url(#linearGradient5)" stroke="none" d="M 539.054382 676.52356 L 516.974792 690.976807 L 516.332825 717.490479 L 495.778503 700.806763 L 470.489929 708.36731 L 479.894226 683.595093 L 464.886932 661.723877 L 491.233887 663.096802 L 507.279449 642.064209 L 514.155579 667.658325 Z M 539.054382 676.52356"/>
            <linearGradient id="linearGradient6" x1="328.135227" y1="681.020424" x2="366.481911" y2="681.020424" gradientUnits="userSpaceOnUse" gradientTransform="matrix(0.173648 0.984808 -0.984808 0.173648 957.673263 220.730297)">
                <stop offset="0.224997" stop-color="#a7edff" stop-opacity="1"/>
                <stop offset="1" stop-color="#00ffdb" stop-opacity="1"/>
            </linearGradient>
            <path id="path3" fill="url(#linearGradient6)" stroke="none" d="M 365.628296 678.577148 L 354.453644 685.885254 L 354.130676 699.286621 L 343.738983 690.854004 L 330.963654 694.663452 L 335.71167 682.150024 L 328.134583 671.099731 L 341.454895 671.78772 L 349.554169 661.155396 L 353.042511 674.098511 Z M 365.628296 678.577148"/>
            <linearGradient id="linearGradient7" x1="229.353032" y1="824.420424" x2="254.908624" y2="824.420424" gradientUnits="userSpaceOnUse" gradientTransform="matrix(0.173648 0.984808 -0.984808 0.173648 1011.980876 442.809003)">
                <stop offset="0.224997" stop-color="#a7edff" stop-opacity="1"/>
                <stop offset="1" stop-color="#00ffdb" stop-opacity="1"/>
            </linearGradient>
            <path id="path4" fill="url(#linearGradient7)" stroke="none" d="M 254.343918 822.793091 L 246.884155 827.650513 L 246.664688 836.595947 L 239.746704 830.988159 L 231.234558 833.515869 L 234.380997 825.158081 L 229.337448 817.808105 L 238.222748 818.269165 L 243.62114 811.182739 L 245.937805 819.809204 Z M 254.343918 822.793091"/>
            <linearGradient id="linearGradient8" x1="349.624937" y1="993.50295" x2="379.454647" y2="993.50295" gradientUnits="userSpaceOnUse" gradientTransform="matrix(0.173648 0.984808 -0.984808 0.173648 1279.647529 461.98136)">
                <stop offset="0.224997" stop-color="#a7edff" stop-opacity="1"/>
                <stop offset="1" stop-color="#00ffdb" stop-opacity="1"/>
            </linearGradient>
            <path id="path5" fill="url(#linearGradient8)" stroke="none" d="M 378.795502 991.603455 L 370.088104 997.273315 L 369.83194 1007.714722 L 361.756927 1001.169128 L 351.821136 1004.119507 L 355.493805 994.363953 L 349.60675 985.784729 L 359.978088 986.322876 L 366.279358 978.05127 L 368.98349 988.120483 Z M 378.795502 991.603455"/>
            <linearGradient id="linearGradient9" x1="416.624937" y1="1043.50295" x2="446.454647" y2="1043.50295" gradientUnits="userSpaceOnUse" gradientTransform="matrix(0.173648 0.984808 -0.984808 0.173648 1384.253489 437.316831)">
                <stop offset="0.224997" stop-color="#a7edff" stop-opacity="1"/>
                <stop offset="1" stop-color="#00ffdb" stop-opacity="1"/>
            </linearGradient>
            <path id="Path-copy-5" fill="url(#linearGradient9)" stroke="none" d="M 445.795502 1041.603516 L 437.088104 1047.273315 L 436.83194 1057.714722 L 428.756927 1051.169189 L 418.821136 1054.119507 L 422.493805 1044.364014 L 416.60675 1035.784668 L 426.978088 1036.322876 L 433.279358 1028.05127 L 435.98349 1038.120483 Z M 445.795502 1041.603516"/>
            <linearGradient id="linearGradient10" x1="126.910906" y1="839.48689" x2="146.687567" y2="839.48689" gradientUnits="userSpaceOnUse" gradientTransform="matrix(0.173648 0.984808 -0.984808 0.173648 939.777496 558.990572)">
                <stop offset="0.224997" stop-color="#a7edff" stop-opacity="1"/>
                <stop offset="1" stop-color="#00ffdb" stop-opacity="1"/>
            </linearGradient>
            <path id="path6" fill="url(#linearGradient10)" stroke="none" d="M 146.250565 838.227539 L 140.477692 841.986572 L 140.307846 848.909058 L 134.954239 844.569458 L 128.366959 846.525513 L 130.801895 840.057739 L 126.898849 834.369873 L 133.774902 834.726685 L 137.952545 829.242676 L 139.745346 835.918335 Z M 146.250565 838.227539"/>
            <linearGradient id="linearGradient11" x1="213.291784" y1="1013.666077" x2="234.820008" y2="1013.666077" gradientUnits="userSpaceOnUse" gradientTransform="matrix(0.173648 0.984808 -0.984808 0.173648 1183.41521 616.992827)">
                <stop offset="0.224997" stop-color="#a7edff" stop-opacity="1"/>
                <stop offset="1" stop-color="#00ffdb" stop-opacity="1"/>
            </linearGradient>
            <path id="path7" fill="url(#linearGradient11)" stroke="none" d="M 234.344299 1012.295166 L 228.060135 1016.387146 L 227.875259 1023.922791 L 222.047501 1019.198792 L 214.876785 1021.328125 L 217.527374 1014.287476 L 213.278656 1008.095825 L 220.763702 1008.484192 L 225.311356 1002.514526 L 227.262924 1009.781494 Z M 234.344299 1012.295166"/>
            <linearGradient id="linearGradient12" x1="137.793317" y1="955.560188" x2="157.695265" y2="955.560188" gradientUnits="userSpaceOnUse" gradientTransform="matrix(0.173648 0.984808 -0.984808 0.173648 1063.131846 644.12918)">
                <stop offset="0.224997" stop-color="#a7edff" stop-opacity="1"/>
                <stop offset="1" stop-color="#00ffdb" stop-opacity="1"/>
            </linearGradient>
            <path id="path8" fill="url(#linearGradient12)" stroke="none" d="M 157.255493 954.292847 L 151.446045 958.075684 L 151.275131 965.042114 L 145.887604 960.674927 L 139.258591 962.643433 L 141.708954 956.134644 L 137.781189 950.410645 L 144.70079 950.769775 L 148.904907 945.251099 L 150.709061 951.969116 Z M 157.255493 954.292847"/>
            <linearGradient id="linearGradient13" x1="434.717243" y1="964.086489" x2="484.671523" y2="964.086489" gradientUnits="userSpaceOnUse" gradientTransform="matrix(0.173648 0.984808 -0.984808 0.173648 1329.30914 343.964035)">
                <stop offset="0.224997" stop-color="#a7edff" stop-opacity="1"/>
                <stop offset="1" stop-color="#00ffdb" stop-opacity="1"/>
            </linearGradient>
            <path id="path9" fill="url(#linearGradient13)" stroke="none" d="M 483.567841 960.90564 L 468.994598 970.449219 L 468.557007 987.88623 L 455.034241 976.924744 L 438.394958 981.86554 L 444.554016 965.577148 L 434.686951 951.161255 L 452.055267 952.062378 L 462.607422 938.210449 L 467.136169 955.072876 Z M 483.567841 960.90564"/>
            <linearGradient id="linearGradient14" x1="383.489347" y1="768.567137" x2="411.415151" y2="768.567137" gradientUnits="userSpaceOnUse" gradientTransform="matrix(0.173648 0.984808 -0.984808 0.173648 1085.326265 243.692798)">
                <stop offset="0.224997" stop-color="#a7edff" stop-opacity="1"/>
                <stop offset="1" stop-color="#00ffdb" stop-opacity="1"/>
            </linearGradient>
            <path id="path10" fill="url(#linearGradient14)" stroke="none" d="M 399.601959 782.36438 C 392.054077 783.521118 384.911957 778.334961 383.740417 770.702515 C 382.526581 763.077637 387.712616 755.935669 395.302795 754.771362 C 402.843231 753.57251 409.992828 758.800781 411.164337 766.433228 C 412.328522 774.023315 407.184723 781.157959 399.601959 782.36438 Z M 399.601959 782.36438"/>
            <linearGradient id="linearGradient15" x1="430.07998" y1="608.565671" x2="447.31169" y2="608.565671" gradientUnits="userSpaceOnUse" gradientTransform="matrix(0.173648 0.984808 -0.984808 0.173648 961.837294 70.858291)">
                <stop offset="0.224997" stop-color="#a7edff" stop-opacity="1"/>
                <stop offset="1" stop-color="#00ffdb" stop-opacity="1"/>
            </linearGradient>
            <path id="Path-copy-2" fill="url(#linearGradient15)" stroke="none" d="M 440.022308 617.079346 C 435.364868 617.793091 430.957794 614.592896 430.234924 609.883301 C 429.485901 605.178345 432.685974 600.771362 437.369507 600.052979 C 442.022369 599.31311 446.434021 602.539307 447.156921 607.248901 C 447.875275 611.932373 444.701294 616.334839 440.022308 617.079346 Z M 440.022308 617.079346"/>
            <linearGradient id="linearGradient16" x1="258.022793" y1="737.940294" x2="282.596205" y2="737.940294" gradientUnits="userSpaceOnUse" gradientTransform="matrix(0.173648 0.984808 -0.984808 0.173648 950.10007 343.595417)">
                <stop offset="0.224997" stop-color="#a7edff" stop-opacity="1"/>
                <stop offset="1" stop-color="#00ffdb" stop-opacity="1"/>
            </linearGradient>
            <path id="path11" fill="url(#linearGradient16)" stroke="none" d="M 272.200592 750.079956 C 265.555511 751.136475 259.261444 746.566406 258.228912 739.84021 C 257.15921 733.120728 261.729523 726.826538 268.418396 725.800659 C 275.063599 724.744019 281.364136 729.35144 282.390106 736.040527 C 283.459808 742.760132 278.889587 749.054077 272.200592 750.079956 Z M 272.200592 750.079956"/>
            <linearGradient id="linearGradient17" x1="291.752682" y1="1016.440584" x2="307.754978" y2="1016.440584" gradientUnits="userSpaceOnUse" gradientTransform="matrix(0.173648 0.984808 -0.984808 0.173648 1248.700691 544.737633)">
                <stop offset="0.224997" stop-color="#a7edff" stop-opacity="1"/>
                <stop offset="1" stop-color="#00ffdb" stop-opacity="1"/>
            </linearGradient>
            <path id="Path-copy-4" fill="url(#linearGradient17)" stroke="none" d="M 300.985321 1024.345947 C 296.65802 1025.033936 292.559296 1022.057922 291.886902 1017.677856 C 291.190308 1013.302063 294.166534 1009.203247 298.522339 1008.535217 C 302.849731 1007.847168 306.952637 1010.847534 307.620758 1015.20343 C 308.317352 1019.579285 305.341217 1023.677917 300.985321 1024.345947 Z M 300.985321 1024.345947"/>
            <linearGradient id="linearGradient18" x1="84.084719" y1="909.811435" x2="96.311673" y2="909.811435" gradientUnits="userSpaceOnUse" gradientTransform="matrix(0.173648 0.984808 -0.984808 0.173648 970.524798 662.996455)">
                <stop offset="0.224997" stop-color="#a7edff" stop-opacity="1"/>
                <stop offset="1" stop-color="#00ffdb" stop-opacity="1"/>
            </linearGradient>
            <path id="Path-copy-3" fill="url(#linearGradient18)" stroke="none" d="M 91.139153 915.851685 C 87.832756 916.377441 84.701035 914.103516 84.187286 910.756836 C 83.655029 907.41333 85.929077 904.281494 89.25724 903.771118 C 92.56369 903.245361 95.698631 905.537964 96.209129 908.866211 C 96.741379 912.209595 94.467369 915.341309 91.139153 915.851685 Z M 91.139153 915.851685"/>
            <linearGradient id="linearGradient19" x1="270.397806" y1="951.580287" x2="297.430003" y2="951.580287" gradientUnits="userSpaceOnUse" gradientTransform="matrix(0.173648 0.984808 -0.984808 0.173648 1171.736417 506.73949)">
                <stop offset="0.224997" stop-color="#a7edff" stop-opacity="1"/>
                <stop offset="1" stop-color="#00ffdb" stop-opacity="1"/>
            </linearGradient>
            <path id="path12" fill="url(#linearGradient19)" stroke="none" d="M 286.006683 964.93335 C 278.679077 966.084595 271.788818 961.037354 270.630829 953.670776 C 269.469421 946.284546 274.493561 939.378296 281.821167 938.227051 C 289.171753 937.092041 296.04248 942.1427 297.200439 949.509399 C 298.358459 956.876099 293.33432 963.782349 286.006683 964.93335 Z M 286.006683 964.93335"/>
            <linearGradient id="linearGradient20" x1="596.439845" y1="597.016935" x2="633.704775" y2="597.016935" gradientUnits="userSpaceOnUse" gradientTransform="matrix(0.173648 0.984808 -0.984808 0.173648 1096.213031 -112.381947)">
                <stop offset="0.224997" stop-color="#a7edff" stop-opacity="1"/>
                <stop offset="1" stop-color="#00ffdb" stop-opacity="1"/>
            </linearGradient>
            <path id="path13" fill="url(#linearGradient20)" stroke="none" d="M 617.93158 615.430176 C 607.832458 616.989014 598.345215 610.06311 596.767456 599.856323 C 595.145325 589.712769 602.071167 580.225464 612.161011 578.612793 C 622.260132 577.054077 631.747375 583.97998 633.379028 594.177246 C 634.947266 604.330322 628.021423 613.817505 617.93158 615.430176 Z M 617.93158 615.430176"/>
            <linearGradient id="linearGradient21" x1="525.392491" y1="1021.12196" x2="563.123762" y2="1021.12196" gradientUnits="userSpaceOnUse" gradientTransform="matrix(0.173648 0.984808 -0.984808 0.173648 1455.357518 307.81637)">
                <stop offset="0.224997" stop-color="#a7edff" stop-opacity="1"/>
                <stop offset="1" stop-color="#00ffdb" stop-opacity="1"/>
            </linearGradient>
            <path id="Path-copy" fill="url(#linearGradient21)" stroke="none" d="M 547.153198 1039.765625 C 536.927673 1041.343994 527.321716 1034.331421 525.724243 1023.996826 C 524.081787 1013.726318 531.094299 1004.120361 541.310364 1002.487549 C 551.53595 1000.909302 561.141907 1007.921814 562.793945 1018.246765 C 564.381836 1028.526855 557.369263 1038.132813 547.153198 1039.765625 Z M 547.153198 1039.765625"/>
        </g>
        <g id="g6">
            <clipPath id="clipPath3">
                <path d="M 1851.709148 238.635216 L 1977.288208 950.829455 L 743.745663 1168.336288 L 618.166603 456.142048 Z M 1851.709148 238.635216"/>
            </clipPath>
            <g id="g7" clip-path="url(#clipPath3)">
                <radialGradient id="radialGradient1" cx="1308.080959" cy="706.659514" r="354.707042" fx="1308.080959" fy="706.659514" gradientUnits="userSpaceOnUse" gradientTransform="matrix(0.173648 0.984808 -0.984808 0.173648 1776.858853 -704.258893)">
                    <stop offset="0" stop-color="#4b00ff" stop-opacity="1"/>
                    <stop offset="1" stop-color="#6e00ff" stop-opacity="1"/>
                </radialGradient>
                <path id="path14" fill="url(#radialGradient1)" fill-rule="evenodd" stroke="none" d="M 1518.559692 669.546509 C 1509.634033 637.517822 1477.955566 617.286987 1445.127686 623.075439 C 1412.379639 628.849854 1389.53064 658.69519 1392.097656 691.845215 C 1401.023315 723.873657 1432.716187 744.18396 1465.464233 738.409668 C 1498.235962 732.303101 1521.126709 702.696167 1518.559692 669.546509 Z M 756.310181 789.199341 C 760.273438 767.519287 781.699036 751.447754 820.395203 740.362915 C 797.745178 618.880249 739.471252 537.527222 644.886353 496.588989 C 736.082947 426.744751 859.71936 417.237793 960.717102 472.698975 C 1045.834351 445.069214 1137.044678 443.164795 1223.258057 467.302612 C 1092.018799 481.100464 1030.175293 515.690918 1037.58313 571.181152 C 1428.757324 497.69873 1721.163818 507.361694 1915.353638 599.581055 C 1764.415649 752.655396 1492.892456 861.426636 1100.232544 926.483398 C 1112.250244 981.160706 1182.194702 992.513184 1310.252319 960.671875 C 1237.437866 1012.522827 1151.062866 1041.849609 1061.684937 1045.315796 C 986.064758 1131.919434 866.553589 1165.286133 756.730225 1130.887085 C 831.291382 1060.123779 858.544495 963.690308 838.278992 841.786865 C 798.125244 844.605469 772.494995 836.831177 761.355774 817.814331 L 1094.958374 758.991211 L 1089.91272 730.376221 Z M 756.310181 789.199341"/>
            </g>
        </g>
    </g>
</svg>
